<?xml version="1.0" encoding="iso-8859-1"?>
<!-- Generator: Adobe Illustrator 18.1.1, SVG Export Plug-In . SVG Version: 6.00 Build 0)  -->
<svg version="1.1" id="Capa_1" xmlns="http://www.w3.org/2000/svg" xmlns:xlink="http://www.w3.org/1999/xlink" x="0px" y="0px"
	 viewBox="0 0 20.755 20.755" style="enable-background:new 0 0 20.755 20.755;" xml:space="preserve" fill="#d2d2d2">
<g>
	<path d="M10.324,12.655c-0.001-1.55-1.257-2.805-2.807-2.805c-1.548,0-2.804,1.255-2.804,2.805
		s1.256,2.805,2.804,2.805C9.068,15.46,10.324,14.205,10.324,12.655z M5.763,14.002c-0.252-0.17-0.452-0.4-0.566-0.669
		c-0.118-0.268-0.146-0.571-0.098-0.873c0.051-0.302,0.173-0.601,0.364-0.875c-0.035,0.293-0.067,0.572-0.054,0.838
		c0.01,0.266,0.062,0.517,0.16,0.747C5.669,13.401,5.815,13.611,6,13.8c0.185,0.191,0.405,0.362,0.658,0.521
		C6.317,14.293,6.016,14.17,5.763,14.002z M19.275,4.087h-6.368l0.064,0.273h-5.95l0.066-0.273H4.406V3.214H1.904v0.873H1.482
		C0.665,4.087,0,4.748,0,5.567v10.536c0,0.818,0.665,1.481,1.482,1.481H4.07c-1.524-1.085-2.522-2.865-2.522-4.875
		c0-3.297,2.683-5.979,5.979-5.979s5.979,2.683,5.979,5.979c0,2.01-0.998,3.79-2.522,4.875h8.292c0.816,0,1.479-0.663,1.479-1.481
		V5.567C20.754,4.748,20.092,4.087,19.275,4.087z M18.734,15.469c0,0.438-0.354,0.793-0.792,0.793s-0.794-0.355-0.794-0.793V9.592
		c0-0.438,0.356-0.793,0.794-0.793s0.792,0.355,0.792,0.793V15.469z M19.14,7.514h-3.893V5.747h3.893V7.514z M12.42,2.068H7.575
		L7.087,4.087h5.82L12.42,2.068z M7.97,3.613l0.192-0.798h3.669l0.192,0.798H7.97z M10.983,17.583h-0.864
		c1.79-0.939,3.011-2.813,3.011-4.975c0-3.101-2.512-5.614-5.613-5.614c-3.099,0-5.612,2.513-5.612,5.614
		c0,2.162,1.222,4.037,3.011,4.975H4.07c0.978,0.694,2.17,1.104,3.457,1.104S10.005,18.278,10.983,17.583z M2.294,12.708
		c0-2.885,2.348-5.232,5.233-5.232c2.884,0,5.232,2.347,5.232,5.232S10.41,17.94,7.527,17.94
		C4.642,17.941,2.294,15.594,2.294,12.708z"/>
</g>
<g>
</g>
<g>
</g>
<g>
</g>
<g>
</g>
<g>
</g>
<g>
</g>
<g>
</g>
<g>
</g>
<g>
</g>
<g>
</g>
<g>
</g>
<g>
</g>
<g>
</g>
<g>
</g>
<g>
</g>
</svg>
