<?xml version="1.0" standalone="no"?>
<!DOCTYPE svg PUBLIC "-//W3C//DTD SVG 20010904//EN"
 "http://www.w3.org/TR/2001/REC-SVG-20010904/DTD/svg10.dtd">
<svg version="1.0" xmlns="http://www.w3.org/2000/svg"
 width="260.000000pt" height="260.000000pt" viewBox="0 0 260.000000 260.000000"
 preserveAspectRatio="xMidYMid meet">
<metadata>
Created by potrace 1.11, written by Peter Selinger 2001-2013
</metadata>
<g transform="translate(0.000000,260.000000) scale(0.100000,-0.100000)"
fill="#000000" stroke="none">
<path d="M1613 2558 c-229 -25 -409 -135 -543 -330 -24 -35 -127 -187 -229
-338 -102 -151 -196 -291 -211 -311 -14 -20 -31 -45 -37 -55 -7 -11 -31 -45
-53 -77 -22 -32 -40 -62 -40 -67 0 -4 -3 -10 -8 -12 -4 -1 -41 -52 -81 -113
-139 -206 -154 -240 -184 -408 -18 -98 -2 -257 35 -347 55 -134 126 -230 235
-320 157 -129 412 -182 621 -129 76 19 203 78 238 110 11 10 24 19 28 19 16 0
125 122 173 193 26 39 50 74 53 77 3 3 30 43 60 89 30 46 59 89 65 95 5 6 16
23 23 37 8 15 25 38 38 53 14 14 22 26 19 26 -3 0 11 24 32 53 21 28 61 86 88
127 27 41 53 80 57 85 24 29 108 158 108 165 0 5 3 10 8 12 14 6 210 305 223
341 7 20 16 37 19 37 4 0 7 6 8 13 1 23 32 132 42 150 7 11 7 17 -1 17 -5 0
-8 4 -5 9 9 13 9 128 1 181 -24 160 -103 313 -216 420 -56 53 -103 90 -116 90
-6 0 -13 3 -15 8 -6 13 -156 80 -183 81 -3 1 -15 3 -28 6 -51 13 -166 20 -224
13z m-548 -1089 c28 -20 147 -100 265 -179 118 -80 221 -150 228 -157 6 -6 20
-14 30 -17 25 -9 63 -73 64 -109 1 -53 -8 -72 -85 -184 -40 -60 -115 -170
-166 -246 -104 -153 -165 -215 -255 -256 -80 -37 -107 -44 -192 -46 -165 -6
-326 79 -417 220 -74 114 -94 293 -46 410 7 17 12 33 11 37 -1 4 76 123 172
265 111 166 185 266 207 281 50 35 117 27 184 -19z"/>
</g>
</svg>
